<svg width="60" height="60" viewBox="0 0 60 60" fill="none" xmlns="http://www.w3.org/2000/svg">
<g clip-path="url(#clip0)">
<path d="M59.0625 1.40332H55.3125C54.7941 1.40332 54.375 1.82238 54.375 2.34082V6.09082C54.375 6.60926 54.7941 7.02832 55.3125 7.02832H56.2275C55.7616 20.0952 45.6141 30.9196 32.5988 32.2058C32.176 31.1849 31.1719 30.4649 30.001 30.4649C28.8291 30.4649 27.825 31.1858 27.4032 32.2058C14.3879 30.9224 4.23848 20.0971 3.77254 7.02832H4.68848C5.20691 7.02832 5.62598 6.60926 5.62598 6.09082V2.34082C5.62598 1.82238 5.20691 1.40332 4.68848 1.40332H0.938477C0.420039 1.40332 0.000976562 1.82238 0.000976562 2.34082V6.09082C0.000976562 6.60926 0.420039 7.02832 0.938477 7.02832H1.89754C2.2791 18.4958 9.61785 28.3639 19.9144 32.3399H13.8891C13.501 31.2514 12.4697 30.4649 11.25 30.4649C9.69941 30.4649 8.43754 31.7268 8.43754 33.2774C8.43754 34.828 9.69941 36.0899 11.25 36.0899C12.4707 36.0899 13.501 35.3033 13.8891 34.2149H27.36C27.7482 35.3033 28.7794 36.0899 29.9991 36.0899C31.2188 36.0899 32.25 35.3033 32.6382 34.2149H46.1091C46.4972 35.3033 47.5285 36.0899 48.7482 36.0899C50.2988 36.0899 51.5607 34.828 51.5607 33.2774C51.5607 31.7268 50.2988 30.4649 48.7482 30.4649C47.5275 30.4649 46.4972 31.2514 46.1091 32.3399H40.08C50.3775 28.3639 57.7182 18.4949 58.1007 7.02832H59.0625C59.581 7.02832 60 6.60926 60 6.09082V2.34082C60 1.82238 59.581 1.40332 59.0625 1.40332ZM1.87598 3.27832H3.75098V5.15332H1.87598V3.27832ZM11.25 34.2149C10.7325 34.2149 10.3125 33.7949 10.3125 33.2774C10.3125 32.7599 10.7325 32.3399 11.25 32.3399C11.7675 32.3399 12.1875 32.7599 12.1875 33.2774C12.1875 33.7949 11.7675 34.2149 11.25 34.2149ZM30 34.2149C29.4844 34.2149 29.0663 33.7977 29.0635 33.2821C29.0635 33.2811 29.0644 33.2802 29.0644 33.2793C29.0644 33.2774 29.0635 33.2746 29.0635 33.2727C29.0663 32.7571 29.4844 32.3399 30 32.3399C30.511 32.3399 30.9225 32.7505 30.9338 33.2586C30.9338 33.2661 30.93 33.2718 30.931 33.2783C30.931 33.283 30.9338 33.2868 30.9347 33.2914C30.9263 33.8024 30.5119 34.2149 30 34.2149ZM48.75 32.3399C49.2675 32.3399 49.6875 32.7599 49.6875 33.2774C49.6875 33.7949 49.2675 34.2149 48.75 34.2149C48.2325 34.2149 47.8125 33.7949 47.8125 33.2774C47.8125 32.7599 48.2325 32.3399 48.75 32.3399ZM58.125 5.15332H56.25V3.27832H58.125V5.15332Z" fill="#2586EE"/>
<path d="M36.5503 47.2818C36.5466 47.2227 36.5325 47.1674 36.5175 47.1093C36.5007 47.0474 36.4838 46.9883 36.4547 46.9321C36.4435 46.9096 36.4435 46.8833 36.4303 46.8618L30.8044 37.483C30.7969 37.4708 30.7847 37.4643 30.7772 37.453C30.7566 37.4211 30.7303 37.3939 30.706 37.3649C30.6741 37.3264 30.6403 37.2936 30.6028 37.2608C30.5738 37.2364 30.5457 37.2102 30.5138 37.1896C30.5016 37.1811 30.495 37.1699 30.4838 37.1624C30.4641 37.1511 30.4435 37.1511 30.4247 37.1418C30.3835 37.1211 30.3413 37.1033 30.2963 37.0883C30.2569 37.0743 30.2194 37.0621 30.1782 37.0546C30.1397 37.0461 30.1032 37.0443 30.0647 37.0414C30.0432 37.0396 30.0235 37.0283 30.0019 37.0283C29.9803 37.0283 29.9607 37.0396 29.9391 37.0414C29.9007 37.0443 29.8641 37.0461 29.8247 37.0546C29.7844 37.0621 29.7469 37.0743 29.7075 37.0883C29.6625 37.1033 29.6213 37.1202 29.5791 37.1418C29.5594 37.1521 29.5388 37.1521 29.52 37.1624C29.5078 37.1699 29.5013 37.1821 29.49 37.1896C29.4582 37.2102 29.431 37.2364 29.4019 37.2608C29.3635 37.2936 29.3297 37.3264 29.2978 37.3649C29.2735 37.3939 29.2472 37.4211 29.2266 37.453C29.2191 37.4652 29.2069 37.4718 29.1994 37.483L23.5735 46.8618C23.5594 46.8833 23.5594 46.9096 23.5491 46.9321C23.52 46.9893 23.5022 47.0474 23.4863 47.1093C23.4704 47.1674 23.4572 47.2227 23.4535 47.2818C23.4488 47.3399 23.4554 47.3952 23.4629 47.4533C23.4704 47.5189 23.4816 47.5808 23.5022 47.6427C23.5107 47.6661 23.5069 47.6905 23.5172 47.713L25.8216 53.0905C25.5216 53.248 25.3125 53.5499 25.3125 53.9089V57.6589C25.3125 58.1774 25.7316 58.5964 26.25 58.5964H33.75C34.2685 58.5964 34.6875 58.1774 34.6875 57.6589V53.9089C34.6875 53.5499 34.4785 53.248 34.1832 53.0905L36.4875 47.713C36.4978 47.6905 36.4941 47.6661 36.5025 47.6427C36.5232 47.5808 36.5344 47.5189 36.5419 47.4533C36.5485 47.3952 36.555 47.3389 36.5503 47.2818ZM27.8053 52.9714L25.4241 47.4149L29.0625 41.3502V48.2793C29.0625 48.7977 29.4816 49.2168 30 49.2168C30.5185 49.2168 30.9375 48.7977 30.9375 48.2793V41.3502L34.576 47.4149L32.1947 52.9714H27.8053ZM32.8125 56.7214H27.1875V54.8464H32.8125V56.7214Z" fill="#FFA748"/>
</g>
<defs>
<clipPath id="clip0">
<rect width="60" height="60" fill="white"/>
</clipPath>
</defs>
</svg>
