<svg width="60" height="60" viewBox="0 0 60 60" fill="none" xmlns="http://www.w3.org/2000/svg">
<g clip-path="url(#clip0)">
<path d="M59.9673 53.3147C59.9607 53.2716 59.9691 53.2304 59.9569 53.1872L58.1307 46.7485V41.2463C58.1307 41.0316 58.0463 40.8422 57.9244 40.6838C57.9179 40.6754 57.9132 40.665 57.9057 40.6575C57.8541 40.5957 57.7951 40.545 57.7294 40.4972C57.7013 40.4766 57.6723 40.4569 57.6423 40.4382C57.5841 40.4063 57.526 40.381 57.4613 40.3622C57.4369 40.3538 57.4173 40.3388 57.3919 40.3332L29.2688 33.7697C29.1282 33.7369 28.9829 33.7369 28.8423 33.7697L0.731318 40.3332C0.307568 40.4316 0.00756836 40.8104 0.00756836 41.2463C0.00756836 41.6822 0.307568 42.06 0.731318 42.1594L13.1288 45.0525V56.1469C13.126 56.1779 13.1101 56.206 13.1101 56.2379C13.1101 58.3135 14.7994 60.0029 16.8751 60.0029C16.8976 60.0029 16.9163 59.9916 16.9379 59.9897H41.1919C41.2135 59.9916 41.2323 60.0029 41.2548 60.0029C43.3304 60.0029 45.0198 58.3135 45.0198 56.2379C45.0198 56.1929 45.0001 56.1535 44.9944 56.1104V45.0516L56.2557 42.4238V46.7466L54.4182 53.1854C54.4051 53.2294 54.4135 53.2726 54.4079 53.3176C54.4013 53.3607 54.3826 53.3982 54.3826 53.4432C54.3826 53.4629 54.3929 53.4788 54.3938 53.4985C54.3985 53.565 54.4144 53.6269 54.4323 53.6897C54.4482 53.746 54.4594 53.8004 54.4857 53.851C54.5119 53.9063 54.5485 53.9504 54.5851 53.9991C54.6207 54.0469 54.6535 54.0947 54.6985 54.135C54.7416 54.1735 54.7923 54.2007 54.8419 54.2316C54.8973 54.2654 54.9498 54.2972 55.0116 54.3197C55.0304 54.3263 55.0435 54.3404 55.0632 54.346C55.1485 54.3694 55.2338 54.3807 55.3182 54.3816H55.3201H59.0551H59.0569C59.1413 54.3807 59.2266 54.3704 59.311 54.346C59.3307 54.3404 59.3429 54.3263 59.3616 54.3207C59.4254 54.2982 59.4798 54.2644 59.5369 54.2307C59.5857 54.2007 59.6344 54.1735 59.6757 54.136C59.7216 54.0957 59.7554 54.0469 59.7919 53.9991C59.8276 53.9513 59.8641 53.9063 59.8894 53.8538C59.9148 53.8013 59.9279 53.746 59.9438 53.6888C59.9616 53.6269 59.9776 53.5669 59.9813 53.5022C59.9832 53.4825 59.9935 53.4647 59.9935 53.4441C59.9926 53.3972 59.9738 53.3588 59.9673 53.3147ZM57.1904 50.3044L57.8148 52.5057H56.5623L57.1904 50.3044ZM43.1363 56.3288C43.0876 57.3179 42.2813 58.1082 41.2848 58.1241C41.2669 58.1232 41.2529 58.1138 41.2351 58.1138H16.8751C16.8601 58.1138 16.8479 58.1222 16.8329 58.1222C15.8344 58.1007 15.0282 57.3001 14.9926 56.3054C14.9935 56.2857 15.0038 56.2688 15.0038 56.2482V45.4894L28.8423 48.7191C28.9126 48.736 28.9838 48.7435 29.056 48.7435C29.1282 48.7435 29.1985 48.735 29.2698 48.7191L43.1204 45.4885V56.2482C43.1194 56.2763 43.1335 56.3016 43.1363 56.3288ZM29.0551 46.8441L5.06819 41.2463L29.0551 35.6447L53.0532 41.2463L29.0551 46.8441Z" fill="#2586EE"/>
<path d="M40.3201 54.3826H17.8201C17.3016 54.3826 16.8826 54.8016 16.8826 55.3201C16.8826 55.8385 17.3016 56.2576 17.8201 56.2576H40.3201C40.8385 56.2576 41.2576 55.8385 41.2576 55.3201C41.2576 54.8016 40.8385 54.3826 40.3201 54.3826Z" fill="#2586EE"/>
<path d="M40.3322 27.2063C43.3416 24.1969 45 20.1947 45 15.9366C45 11.6785 43.3416 7.67629 40.3322 4.66692C37.3228 1.65661 33.3206 -0.00183105 29.0625 -0.00183105C24.8044 -0.00183105 20.8022 1.65661 17.7928 4.66692C14.7825 7.67629 13.125 11.6785 13.125 15.9366C13.125 20.1947 14.7834 24.1979 17.7937 27.2063C20.8031 30.2166 24.8053 31.8741 29.0634 31.8741C33.3206 31.8741 37.3228 30.2157 40.3322 27.2063ZM14.9991 15.9366C14.9991 12.1791 16.4625 8.64848 19.1184 5.99348C21.7744 3.33661 25.3059 1.87317 29.0625 1.87317C32.8191 1.87317 36.3506 3.33661 39.0066 5.99348C41.6616 8.64848 43.125 12.1791 43.125 15.9366C43.125 19.6941 41.6616 23.2247 39.0066 25.8797C36.3506 28.5357 32.8191 29.9991 29.0625 29.9991C25.3059 29.9991 21.7753 28.5357 19.1194 25.8797C16.4625 23.2247 14.9991 19.6941 14.9991 15.9366Z" fill="#FFA748"/>
<path d="M28.3988 20.5753L33.6975 25.874C33.8803 26.0568 34.1203 26.1487 34.3603 26.1487C34.6003 26.1487 34.8403 26.0568 35.0231 25.874L39 21.8971C39.3666 21.5306 39.3666 20.9381 39 20.5715L37.0135 18.5849C37.0125 18.584 37.0125 18.5831 37.0116 18.5821C37.0106 18.5812 37.0097 18.5812 37.0088 18.5803L35.0288 16.6003C35.0269 16.5984 35.0269 16.5965 35.025 16.5946C35.0231 16.5928 35.0213 16.5928 35.0194 16.5909L33.7013 15.2728L36.3478 12.6262C36.361 12.6131 36.3675 12.5934 36.3797 12.5793C36.4285 12.5249 36.4669 12.464 36.5025 12.3984C36.5175 12.3712 36.5391 12.3487 36.5513 12.3206C36.556 12.3093 36.5569 12.299 36.5606 12.2878C36.5644 12.2774 36.5719 12.269 36.5756 12.2596L37.9031 8.28275C37.9153 8.24713 37.9088 8.2115 37.9163 8.17588C37.9303 8.11307 37.9397 8.05213 37.9397 7.98744C37.9397 7.92182 37.9294 7.85994 37.9163 7.79713C37.9088 7.7615 37.9153 7.72588 37.9031 7.69025C37.8956 7.66963 37.8797 7.65463 37.8713 7.63307C37.8469 7.574 37.8141 7.52432 37.7785 7.47088C37.7438 7.41838 37.711 7.36869 37.6688 7.3265C37.6303 7.28807 37.5863 7.25994 37.5413 7.229C37.4841 7.18869 37.4288 7.15307 37.3641 7.12682C37.3444 7.11932 37.3313 7.10338 37.3106 7.09682C37.2769 7.08463 37.2431 7.09119 37.2085 7.08369C37.1438 7.06963 37.0819 7.05932 37.0144 7.05932C36.9488 7.05932 36.8869 7.06963 36.8231 7.08275C36.7875 7.09025 36.7528 7.08369 36.7172 7.09588L32.7385 8.42057C32.7281 8.42432 32.7216 8.43275 32.7122 8.4365C32.7 8.44025 32.6888 8.44119 32.6775 8.44588C32.6241 8.46744 32.5828 8.50682 32.536 8.53775C32.4891 8.56869 32.4385 8.594 32.3981 8.6315C32.3906 8.639 32.3794 8.64275 32.3728 8.65025L29.7263 11.2968L24.4275 5.99807C24.061 5.6315 23.4685 5.6315 23.1019 5.99807L19.125 9.97494C18.7585 10.3415 18.7585 10.934 19.125 11.3006L24.4238 16.5993L19.786 21.2371C19.0538 21.9693 19.0538 23.1618 19.786 23.894L21.1097 25.2178C21.12 25.2281 21.1331 25.2309 21.1435 25.2403C21.5053 25.5853 21.9703 25.7624 22.4372 25.7624C22.9172 25.7624 23.3972 25.5796 23.7628 25.214L25.7475 23.2293C25.7494 23.2274 25.7513 23.2274 25.7531 23.2256C25.755 23.2237 25.755 23.2218 25.7569 23.2199L28.3988 20.5753ZM25.0875 21.2353L23.7628 19.9087L24.4247 19.2468L25.7494 20.5734L25.0875 21.2353ZM22.4353 23.8874C22.4306 23.8828 22.4231 23.8809 22.4185 23.8762L21.1106 22.5684C21.1088 22.5665 21.1088 22.5646 21.1069 22.5628C21.1069 22.5628 21.1078 22.5618 21.1088 22.5609L22.4363 21.2334L23.761 22.5599L22.4353 23.8874ZM25.7503 17.9212L32.0981 11.5734V11.9615C32.0981 12.4799 32.5172 12.899 33.0356 12.899H33.4238L27.076 19.2468L25.7503 17.9212ZM35.0119 11.0249H33.9731V9.98713L35.5313 9.46775L35.0119 11.0249ZM33.0356 17.2584C32.67 17.6249 32.67 18.2165 33.0366 18.5831C33.2194 18.7659 33.4594 18.8578 33.6994 18.8578C33.9394 18.8578 34.1785 18.7659 34.3613 18.584L35.0231 19.2459L34.3613 19.9087C33.9956 20.2762 33.9956 20.8687 34.3622 21.2353C34.545 21.4171 34.785 21.509 35.025 21.509C35.265 21.509 35.506 21.4171 35.6888 21.2343L36.3497 20.5724L37.0116 21.2343L34.3603 23.8856L29.7244 19.2496L32.3756 16.5984L33.0356 17.2584ZM21.1116 10.6368L23.7628 7.98557L24.4256 8.64838C24.0591 9.01494 24.0591 9.60744 24.4256 9.974C24.6085 10.1568 24.8485 10.2487 25.0885 10.2487C25.3285 10.2487 25.5685 10.1568 25.7513 9.974L26.4141 10.6368L25.7513 11.2996C25.3847 11.6662 25.3847 12.2587 25.7513 12.6253C25.9341 12.8081 26.1741 12.8999 26.4141 12.8999C26.6541 12.8999 26.8941 12.8081 27.0769 12.6253L27.7397 11.9624L28.3988 12.6215L25.7475 15.2728L21.1116 10.6368Z" fill="#FFA748"/>
</g>
<defs>
<clipPath id="clip0">
<rect width="60" height="60" fill="white"/>
</clipPath>
</defs>
</svg>
