<svg width="60" height="56" viewBox="0 0 60 56" fill="none" xmlns="http://www.w3.org/2000/svg">
<path d="M53.4365 13.4688C52.9181 13.4688 52.499 13.0487 52.499 12.5312C52.499 12.0138 52.9181 11.5938 53.4365 11.5938C56.0212 11.5938 58.124 9.49094 58.124 6.90625C58.124 4.32156 56.0212 2.21875 53.4365 2.21875C52.9181 2.21875 52.499 1.79875 52.499 1.28125C52.499 0.76375 52.9181 0.34375 53.4365 0.34375C57.0543 0.34375 59.999 3.2875 59.999 6.90625C59.999 10.525 57.0543 13.4688 53.4365 13.4688Z" fill="#2586EE"/>
<path d="M53.4365 52.8418C52.9181 52.8418 52.499 52.4227 52.499 51.9043C52.499 51.3859 52.9181 50.9668 53.4365 50.9668C56.0212 50.9668 58.124 48.864 58.124 46.2793C58.124 45.7609 58.5431 45.3418 59.0615 45.3418C59.58 45.3418 59.999 45.7609 59.999 46.2793C59.999 49.8971 57.0543 52.8418 53.4365 52.8418Z" fill="#2586EE"/>
<path d="M52.9678 10.6572C50.1253 10.6572 47.8115 8.34441 47.8115 5.50098C47.8115 2.65754 50.1253 0.344727 52.9678 0.344727C53.4862 0.344727 53.9053 0.764727 53.9053 1.28223C53.9053 1.79973 53.4862 2.21973 52.9678 2.21973C51.1584 2.21973 49.6865 3.6916 49.6865 5.50098C49.6865 7.31035 51.1584 8.78223 52.9678 8.78223C53.4862 8.78223 53.9053 9.20223 53.9053 9.71973C53.9053 10.2372 53.4862 10.6572 52.9678 10.6572Z" fill="#2586EE"/>
<path d="M52.9678 50.0293C50.1253 50.0293 47.8115 47.7155 47.8115 44.873C47.8115 44.3546 48.2306 43.9355 48.749 43.9355C49.2675 43.9355 49.6865 44.3546 49.6865 44.873C49.6865 46.6824 51.1584 48.1543 52.9678 48.1543C53.4862 48.1543 53.9053 48.5734 53.9053 49.0918C53.9053 49.6102 53.4862 50.0293 52.9678 50.0293Z" fill="#2586EE"/>
<path d="M52.9679 7.84848C51.6742 7.84848 50.6223 6.79567 50.6223 5.50285C50.6223 4.21004 51.6742 3.15723 52.9679 3.15723C53.4864 3.15723 53.9054 3.57723 53.9054 4.09473C53.9054 4.61223 53.4864 5.03223 52.9679 5.03223C52.7092 5.03223 52.4973 5.24317 52.4973 5.50285C52.4973 5.76254 52.7092 5.97348 52.9679 5.97348C53.4864 5.97348 53.9054 6.39348 53.9054 6.91098C53.9054 7.42848 53.4864 7.84848 52.9679 7.84848Z" fill="#2586EE"/>
<path d="M53.4365 10.6562C52.9181 10.6562 52.499 10.2362 52.499 9.71875C52.499 9.20125 52.9181 8.78125 53.4365 8.78125C54.4706 8.78125 55.3115 7.94031 55.3115 6.90625C55.3115 5.87219 54.4706 5.03125 53.4365 5.03125C52.9181 5.03125 52.499 4.61125 52.499 4.09375C52.499 3.57625 52.9181 3.15625 53.4365 3.15625C55.5046 3.15625 57.1865 4.83812 57.1865 6.90625C57.1865 8.97438 55.5046 10.6562 53.4365 10.6562Z" fill="#2586EE"/>
<path d="M53.4365 52.8419C52.9181 52.8419 52.499 52.4228 52.499 51.9044V12.5312C52.499 12.0138 52.9181 11.5938 53.4365 11.5938C53.955 11.5938 54.374 12.0138 54.374 12.5312V51.9044C54.374 52.4228 53.955 52.8419 53.4365 52.8419Z" fill="#2586EE"/>
<path d="M59.0615 47.2169C58.5431 47.2169 58.124 46.7978 58.124 46.2794V6.90625C58.124 6.38875 58.5431 5.96875 59.0615 5.96875C59.58 5.96875 59.999 6.38875 59.999 6.90625V46.2794C59.999 46.7978 59.58 47.2169 59.0615 47.2169Z" fill="#2586EE"/>
<path d="M53.4348 10.6571C52.9164 10.6571 52.4973 10.2371 52.4973 9.71964V6.91089C52.4973 6.39339 52.9164 5.97339 53.4348 5.97339C53.9533 5.97339 54.3723 6.39339 54.3723 6.91089V9.71964C54.3723 10.2371 53.9533 10.6571 53.4348 10.6571Z" fill="#2586EE"/>
<path d="M53.4346 7.84839H52.9678C52.4493 7.84839 52.0303 7.42839 52.0303 6.91089C52.0303 6.39339 52.4493 5.97339 52.9678 5.97339H53.4346C53.9531 5.97339 54.3722 6.39339 54.3722 6.91089C54.3722 7.42839 53.9531 7.84839 53.4346 7.84839Z" fill="#2586EE"/>
<path d="M53.4365 10.6562H52.9678C52.4493 10.6562 52.0303 10.2363 52.0303 9.71875C52.0303 9.20125 52.4493 8.78125 52.9678 8.78125H53.4365C53.955 8.78125 54.374 9.20125 54.374 9.71875C54.374 10.2363 53.955 10.6562 53.4365 10.6562Z" fill="#2586EE"/>
<path d="M53.4365 5.03223H52.9678C52.4493 5.03223 52.0303 4.61223 52.0303 4.09473C52.0303 3.57723 52.4493 3.15723 52.9678 3.15723H53.4365C53.955 3.15723 54.374 3.57723 54.374 4.09473C54.374 4.61223 53.955 5.03223 53.4365 5.03223Z" fill="#2586EE"/>
<path d="M48.749 45.8107C48.2306 45.8107 47.8115 45.3916 47.8115 44.8732V5.50098C47.8115 4.98348 48.2306 4.56348 48.749 4.56348C49.2675 4.56348 49.6865 4.98348 49.6865 5.50098V44.8732C49.6865 45.3916 49.2675 45.8107 48.749 45.8107Z" fill="#2586EE"/>
<path d="M41.249 17.2141C40.7306 17.2141 40.3115 16.7941 40.3115 16.2766C40.3115 15.7591 40.7306 15.3391 41.249 15.3391C42.7996 15.3391 44.0615 14.0772 44.0615 12.5266C44.0615 10.976 42.7996 9.71411 41.249 9.71411C40.7306 9.71411 40.3115 9.29411 40.3115 8.77661C40.3115 8.25911 40.7306 7.83911 41.249 7.83911C43.8337 7.83911 45.9365 9.94192 45.9365 12.5266C45.9365 15.1113 43.8337 17.2141 41.249 17.2141Z" fill="#2586EE"/>
<path d="M41.249 52.8438C40.7306 52.8438 40.3115 52.4247 40.3115 51.9062C40.3115 51.3878 40.7306 50.9688 41.249 50.9688C42.7996 50.9688 44.0615 49.7069 44.0615 48.1562C44.0615 47.6378 44.4806 47.2188 44.999 47.2188C45.5175 47.2188 45.9365 47.6378 45.9365 48.1562C45.9365 50.7409 43.8337 52.8438 41.249 52.8438Z" fill="#2586EE"/>
<path d="M41.249 52.8438C40.7306 52.8438 40.3115 52.4247 40.3115 51.9063V16.2766C40.3115 15.7591 40.7306 15.3391 41.249 15.3391C41.7675 15.3391 42.1865 15.7591 42.1865 16.2766V51.9063C42.1865 52.4247 41.7675 52.8438 41.249 52.8438Z" fill="#2586EE"/>
<path d="M44.999 49.0938C44.4806 49.0938 44.0615 48.6747 44.0615 48.1563V12.5266C44.0615 12.0091 44.4806 11.5891 44.999 11.5891C45.5175 11.5891 45.9365 12.0091 45.9365 12.5266V48.1563C45.9365 48.6747 45.5175 49.0938 44.999 49.0938Z" fill="#2586EE"/>
<path d="M41.2491 9.70947H4.66968C4.15124 9.70947 3.73218 9.28947 3.73218 8.77197C3.73218 8.25447 4.15124 7.83447 4.66968 7.83447H41.2491C41.7675 7.83447 42.1866 8.25447 42.1866 8.77197C42.1866 9.28947 41.7675 9.70947 41.2491 9.70947Z" fill="#2586EE"/>
<path d="M41.2492 45.3401H30.9404C30.422 45.3401 30.0029 44.921 30.0029 44.4026C30.0029 43.8842 30.422 43.4651 30.9404 43.4651H41.2492C41.7676 43.4651 42.1867 43.8842 42.1867 44.4026C42.1867 44.921 41.7676 45.3401 41.2492 45.3401Z" fill="#2586EE"/>
<path d="M4.68848 45.353C2.10379 45.353 0.000976562 43.2502 0.000976562 40.6655C0.000976562 40.1471 0.420039 39.728 0.938477 39.728C1.45691 39.728 1.87598 40.1471 1.87598 40.6655C1.87598 42.2162 3.13785 43.478 4.68848 43.478C5.20691 43.478 5.62598 43.8971 5.62598 44.4155C5.62598 44.934 5.20691 45.353 4.68848 45.353Z" fill="#2586EE"/>
<path d="M0.938477 5.97119C0.420039 5.97119 0.000976562 5.55119 0.000976562 5.03369C0.000976562 2.449 2.10379 0.346191 4.68848 0.346191C5.20691 0.346191 5.62598 0.766191 5.62598 1.28369C5.62598 1.80119 5.20691 2.22119 4.68848 2.22119C3.13785 2.22119 1.87598 3.48307 1.87598 5.03369C1.87598 5.55119 1.45691 5.97119 0.938477 5.97119Z" fill="#2586EE"/>
<path d="M4.68848 9.72445C4.17004 9.72445 3.75098 9.30445 3.75098 8.78695V1.2832C3.75098 0.765703 4.17004 0.345703 4.68848 0.345703C5.20691 0.345703 5.62598 0.765703 5.62598 1.2832V8.78695C5.62598 9.30445 5.20691 9.72445 4.68848 9.72445Z" fill="#2586EE"/>
<path d="M0.938476 41.6032C0.420039 41.6032 0.000976562 41.1841 0.000976562 40.6657V5.0332C0.000976562 4.5157 0.420039 4.0957 0.938476 4.0957C1.45691 4.0957 1.87598 4.5157 1.87598 5.0332V40.6657C1.87598 41.1841 1.45691 41.6032 0.938476 41.6032Z" fill="#2586EE"/>
<path d="M4.69223 9.72445C2.10566 9.72445 0.000976562 7.61977 0.000976562 5.0332C0.000976562 4.5157 0.420039 4.0957 0.938477 4.0957C1.45691 4.0957 1.87598 4.5157 1.87598 5.0332C1.87598 6.5857 3.13973 7.84945 4.69223 7.84945C5.21066 7.84945 5.62973 8.26945 5.62973 8.78695C5.62973 9.30445 5.21066 9.72445 4.69223 9.72445Z" fill="#2586EE"/>
<path d="M10.306 45.353H4.68848C4.17004 45.353 3.75098 44.934 3.75098 44.4155C3.75098 43.8971 4.17004 43.478 4.68848 43.478H10.306C10.8244 43.478 11.2435 43.8971 11.2435 44.4155C11.2435 44.934 10.8244 45.353 10.306 45.353Z" fill="#2586EE"/>
<path d="M27.6338 45.3513H13.6079C13.0895 45.3513 12.6704 44.9323 12.6704 44.4138C12.6704 43.8954 13.0895 43.4763 13.6079 43.4763H27.6338C28.1523 43.4763 28.5713 43.8954 28.5713 44.4138C28.5713 44.9323 28.1513 45.3513 27.6338 45.3513Z" fill="#2586EE"/>
<path d="M53.4365 2.21875H52.9678C52.4493 2.21875 52.0303 1.79875 52.0303 1.28125C52.0303 0.76375 52.4493 0.34375 52.9678 0.34375H53.4365C53.955 0.34375 54.374 0.76375 54.374 1.28125C54.374 1.79875 53.955 2.21875 53.4365 2.21875Z" fill="#2586EE"/>
<path d="M20.625 29.3997C17.5228 29.3997 15 26.8769 15 23.7766C15 20.6754 17.5228 18.1516 20.625 18.1516C23.7272 18.1516 26.25 20.6744 26.25 23.7766C26.25 26.8769 23.7272 29.3997 20.625 29.3997ZM20.625 20.0275C18.5569 20.0275 16.875 21.7094 16.875 23.7775C16.875 25.8438 18.5569 27.5257 20.625 27.5257C22.6931 27.5257 24.375 25.8447 24.375 23.7775C24.375 21.7094 22.6931 20.0275 20.625 20.0275Z" fill="#FFA748"/>
<path d="M20.625 26.5872C19.0744 26.5872 17.8125 25.3263 17.8125 23.7766C17.8125 22.226 19.0744 20.9641 20.625 20.9641C22.1756 20.9641 23.4375 22.226 23.4375 23.7766C23.4375 25.3263 22.1756 26.5872 20.625 26.5872ZM20.625 22.8391C20.1075 22.8391 19.6875 23.26 19.6875 23.7766C19.6875 24.2922 20.1075 24.7122 20.625 24.7122C21.1425 24.7122 21.5625 24.2922 21.5625 23.7766C21.5625 23.26 21.1425 22.8391 20.625 22.8391Z" fill="#FFA748"/>
<path d="M22.0321 15.8125C21.5137 15.8125 21.0946 15.3925 21.0946 14.875C21.0946 14.6162 20.8837 14.4053 20.625 14.4053C20.3662 14.4053 20.1553 14.6153 20.1553 14.875C20.1553 15.3925 19.7362 15.8125 19.2178 15.8125C18.6993 15.8125 18.2803 15.3925 18.2803 14.875C18.2803 13.5821 19.3321 12.5303 20.625 12.5303C21.9178 12.5303 22.9696 13.5821 22.9696 14.875C22.9696 15.3925 22.5506 15.8125 22.0321 15.8125Z" fill="#FFA748"/>
<path d="M30.9412 52.8606C30.5802 52.8606 30.2362 52.6515 30.0824 52.3L19.7671 28.8409C19.5581 28.3675 19.7737 27.8143 20.2481 27.6053C20.7234 27.3953 21.2756 27.6128 21.4827 28.0862L31.7981 51.5453C32.0071 52.0196 31.7915 52.5728 31.3171 52.78C31.1943 52.8343 31.0668 52.8606 30.9412 52.8606Z" fill="#FFA748"/>
<path d="M30.9402 55.6562C30.4217 55.6562 30.0027 55.2371 30.0027 54.7187V44.4155C30.0027 43.8971 30.4217 43.478 30.9402 43.478C31.4586 43.478 31.8777 43.8971 31.8777 44.4155V54.7187C31.8777 55.2371 31.4586 55.6562 30.9402 55.6562Z" fill="#FFA748"/>
<path d="M10.305 52.8606C10.1794 52.8606 10.0509 52.8353 9.92905 52.7809C9.45467 52.5728 9.23999 52.0197 9.44811 51.5463L19.7634 28.0872C19.9715 27.6137 20.5228 27.3962 20.9981 27.6062C21.4725 27.8153 21.6872 28.3684 21.479 28.8419L11.1637 52.3C11.01 52.6516 10.6659 52.8606 10.305 52.8606Z" fill="#FFA748"/>
<path d="M30.9413 45.353C30.5804 45.353 30.2363 45.144 30.0826 44.7924L22.636 27.8593C22.4269 27.3859 22.6426 26.8327 23.1169 26.6237C23.5932 26.4146 24.1454 26.6312 24.3516 27.1046L31.7982 44.0387C32.0073 44.5121 31.7916 45.0662 31.3173 45.2733C31.1945 45.3268 31.067 45.353 30.9413 45.353Z" fill="#FFA748"/>
<path d="M10.305 45.3532C10.1794 45.3532 10.0509 45.3279 9.92905 45.2735C9.45467 45.0654 9.23999 44.5113 9.44811 44.0388L16.8965 27.1019C17.1047 26.6285 17.6569 26.4119 18.1312 26.621C18.6056 26.83 18.8203 27.3832 18.6122 27.8566L11.1637 44.7935C11.01 45.1441 10.6659 45.3532 10.305 45.3532Z" fill="#FFA748"/>
<path d="M10.3059 55.6562C9.78747 55.6562 9.36841 55.2371 9.36841 54.7187V44.4155C9.36841 43.8971 9.78747 43.478 10.3059 43.478C10.8243 43.478 11.2434 43.8971 11.2434 44.4155V54.7187C11.2434 55.2371 10.8243 55.6562 10.3059 55.6562Z" fill="#FFA748"/>
<path d="M22.0322 20.2421C21.5138 20.2421 21.0947 19.8221 21.0947 19.3046V14.873C21.0947 14.3555 21.5138 13.9355 22.0322 13.9355C22.5507 13.9355 22.9697 14.3555 22.9697 14.873V19.3046C22.9697 19.8221 22.5507 20.2421 22.0322 20.2421Z" fill="#FFA748"/>
<path d="M19.2178 20.2421C18.6993 20.2421 18.2803 19.8221 18.2803 19.3046V14.873C18.2803 14.3555 18.6993 13.9355 19.2178 13.9355C19.7362 13.9355 20.1553 14.3555 20.1553 14.873V19.3046C20.1553 19.8221 19.7362 20.2421 19.2178 20.2421Z" fill="#FFA748"/>
<path d="M25.5759 40.6582H15.7087C15.1903 40.6582 14.7712 40.2391 14.7712 39.7207C14.7712 39.2023 15.1903 38.7832 15.7087 38.7832H25.5759C26.0944 38.7832 26.5134 39.2023 26.5134 39.7207C26.5134 40.2391 26.0944 40.6582 25.5759 40.6582Z" fill="#FFA748"/>
<path d="M30.9385 40.6582H28.877C28.3585 40.6582 27.9395 40.2391 27.9395 39.7207C27.9395 39.2023 28.3585 38.7832 28.877 38.7832H30.9385C31.457 38.7832 31.876 39.2023 31.876 39.7207C31.876 40.2391 31.457 40.6582 30.9385 40.6582Z" fill="#FFA748"/>
<path d="M12.3693 40.6619H10.3115C9.79309 40.6619 9.37402 40.2428 9.37402 39.7244C9.37402 39.2059 9.79309 38.7869 10.3115 38.7869H12.3693C12.8878 38.7869 13.3068 39.2059 13.3068 39.7244C13.3068 40.2428 12.8878 40.6619 12.3693 40.6619Z" fill="#FFA748"/>
</svg>
