<svg width="81" height="54" viewBox="0 0 81 54" fill="none" xmlns="http://www.w3.org/2000/svg">
<path d="M1 23.3475L19.6229 53.1442L22.7268 20.8645L1 23.3475Z" stroke="#2586EE" stroke-width="1.5" stroke-linejoin="round"/>
<path d="M66.801 1L1 23.3475L19.6229 53.1442L66.801 1Z" stroke="#2586EE" stroke-width="1.5" stroke-linejoin="round"/>
<path d="M67.0943 1.00003L72.8795 3.67012L66.8718 5.22768L61.7542 2.78009L67.0943 1.00003Z" fill="white" stroke="#2586EE" stroke-width="1.5" stroke-linejoin="round"/>
<path d="M54.634 30.3711L61.7543 2.78018L66.872 5.22777L58.8617 35.2663L54.634 30.3711Z" fill="white" stroke="#2586EE" stroke-width="1.5" stroke-linejoin="round"/>
<path d="M75.5497 27.0333L72.4346 24.8082" stroke="#2586EE" stroke-width="1.5"/>
<path d="M72.4346 19.6906L68.8745 17.0205" stroke="#2586EE"/>
<path d="M72.8796 3.66995L66.8719 5.22751L58.8616 35.266L65.0918 32.596L66.6493 27.2558L74.2146 23.9182L75.5497 27.0333L79.9998 24.8082L72.8796 3.66995Z" fill="white" stroke="#FFA748" stroke-width="1.5" stroke-linejoin="round"/>
<path d="M67.5396 21.9157L70.2096 12.5704L73.1022 19.6907L67.5396 21.9157Z" stroke="#FFA748" stroke-width="1.5" stroke-linejoin="round"/>
<path d="M47.7264 9.93896L53.5116 12.6091L47.5039 14.1666L42.3862 11.719L47.7264 9.93896Z" stroke="#2586EE" stroke-width="1.5" stroke-linejoin="round"/>
<path d="M35.2661 39.3101L42.3864 11.7191L47.504 14.1667L39.4938 44.2052L35.2661 39.3101Z" fill="white" stroke="#2586EE" stroke-width="1.5" stroke-linejoin="round"/>
<path d="M56.182 35.9722L53.0669 33.7472" stroke="#2586EE" stroke-width="1.5"/>
<path d="M53.067 28.6295L49.5068 25.9594" stroke="#2586EE"/>
<path d="M53.5116 12.6089L47.5039 14.1664L39.4937 44.205L45.7239 41.5349L47.2814 36.1947L54.8467 32.8571L56.1817 35.9722L60.6319 33.7471L53.5116 12.6089Z" fill="white" stroke="#FFA748" stroke-width="1.5" stroke-linejoin="round"/>
<path d="M48.1716 30.8547L50.8417 21.5093L53.7343 28.6296L48.1716 30.8547Z" stroke="#FFA748" stroke-width="1.5" stroke-linejoin="round"/>
<path d="M28.3587 18.8781L34.1439 21.5482L28.1362 23.1057L23.0186 20.6581L28.3587 18.8781Z" stroke="#2586EE" stroke-width="1.5" stroke-linejoin="round"/>
<path d="M15.8984 48.2492L23.0187 20.6582L28.1364 23.1058L20.1261 53.1444L15.8984 48.2492Z" fill="white" stroke="#2586EE" stroke-width="1.5" stroke-linejoin="round"/>
<path d="M36.8141 44.9114L33.699 42.6863" stroke="#2586EE" stroke-width="1.5"/>
<path d="M33.6993 37.5686L30.1392 34.8985" stroke="#2586EE"/>
<path d="M34.144 21.548L28.1363 23.1056L20.126 53.1441L26.3562 50.474L27.9137 45.1338L35.479 41.7962L36.8141 44.9113L41.2642 42.6862L34.144 21.548Z" fill="white" stroke="#FFA748" stroke-width="1.5" stroke-linejoin="round"/>
<path d="M28.804 39.7938L31.474 30.4485L34.3666 37.5687L28.804 39.7938Z" stroke="#FFA748" stroke-width="1.5" stroke-linejoin="round"/>
</svg>
