<svg width="51" height="39" viewBox="0 0 51 39" fill="none" xmlns="http://www.w3.org/2000/svg">
<path d="M0 37.4554H0.236924V36.1371H1.14755V37.4554H1.38448V35.9392H0V37.4554Z" fill="#2C2C2C"/>
<path d="M2.6282 35.897C2.37032 35.897 2.17531 35.9911 2.04798 36.1483V35.9392H1.83523V38.1294H2.07377V37.2743C2.19948 37.4133 2.38322 37.4976 2.61853 37.4976C3.10689 37.4976 3.39055 37.1508 3.39055 36.6959C3.39055 36.2438 3.10527 35.897 2.6282 35.897ZM2.59436 37.3052C2.22366 37.3052 2.04798 37.0469 2.04798 36.6959C2.04798 36.3393 2.22688 36.0894 2.58952 36.0894C2.96344 36.0894 3.13912 36.3533 3.13912 36.6959C3.13912 37.0413 2.95699 37.3052 2.59436 37.3052Z" fill="#2C2C2C"/>
<path d="M4.47136 37.4976C4.98712 37.4976 5.29657 37.1732 5.29657 36.6959C5.29657 36.227 4.99357 35.897 4.47136 35.897C3.96206 35.897 3.64777 36.2185 3.64777 36.6959C3.64777 37.1662 3.95239 37.4976 4.47136 37.4976ZM4.47136 37.2996C4.09422 37.2996 3.8992 37.0609 3.8992 36.6959C3.8992 36.3421 4.08133 36.095 4.47136 36.095C4.85496 36.095 5.04514 36.3309 5.04514 36.6959C5.04514 37.0539 4.85818 37.2996 4.47136 37.2996Z" fill="#2C2C2C"/>
<path d="M7.03497 35.9392H6.83673L5.88097 37.1101V35.9392H5.6505V37.4554H5.85035L6.80449 36.2747V37.4554H7.03497V35.9392Z" fill="#2C2C2C"/>
<path d="M8.53496 36.6636C8.65423 36.585 8.72031 36.4755 8.72031 36.3337C8.72031 36.0585 8.45599 35.897 8.12075 35.897C7.83708 35.897 7.60177 35.9869 7.4277 36.1526L7.57921 36.2916C7.70492 36.1764 7.89672 36.0936 8.10302 36.0936C8.30771 36.0936 8.47694 36.175 8.47694 36.3477C8.47694 36.512 8.31738 36.5836 8.07562 36.5836H7.87254V36.7605H8.07884C8.3754 36.7605 8.52368 36.8251 8.52368 37.0104C8.52368 37.1901 8.35606 37.2996 8.0998 37.2996C7.85481 37.2996 7.66463 37.1999 7.5373 37.0132L7.34712 37.1185C7.49701 37.3572 7.76294 37.4976 8.1143 37.4976C8.48178 37.4976 8.76544 37.3193 8.76544 37.03C8.76544 36.884 8.6913 36.731 8.53496 36.6636Z" fill="#2C2C2C"/>
<path d="M9.11949 37.4554H9.93019C10.0172 37.4554 10.1252 37.4526 10.2106 37.4316C10.4024 37.3838 10.5249 37.2505 10.5249 37.0427C10.5249 36.8896 10.4572 36.7829 10.3347 36.7184C10.2977 36.6987 10.2574 36.6847 10.2235 36.679C10.2606 36.665 10.3009 36.6397 10.3331 36.6089C10.4008 36.5471 10.4411 36.4628 10.4411 36.3533C10.4411 36.1582 10.3106 36.0122 10.1155 35.9658C10.0253 35.9462 9.90924 35.9392 9.83671 35.9392H9.11949V37.4554ZM9.35803 36.6089V36.1161H9.81254C9.83671 36.1161 9.9447 36.1161 10.0221 36.1399C10.1349 36.1722 10.1929 36.2593 10.1929 36.3646C10.1929 36.4628 10.1413 36.5527 10.0301 36.5864C9.97693 36.6032 9.89957 36.6089 9.84477 36.6089H9.35803ZM9.35803 37.28V36.7858H9.88506C9.92697 36.7858 9.9866 36.7858 10.035 36.7956C10.1816 36.8152 10.2799 36.9037 10.2799 37.0371C10.2799 37.1382 10.2235 37.2336 10.0962 37.2617C10.0414 37.2743 9.96404 37.28 9.91891 37.28H9.35803Z" fill="#2C2C2C"/>
<path d="M11.573 37.4976C12.0888 37.4976 12.3983 37.1732 12.3983 36.6959C12.3983 36.227 12.0952 35.897 11.573 35.897C11.0637 35.897 10.7495 36.2185 10.7495 36.6959C10.7495 37.1662 11.0541 37.4976 11.573 37.4976ZM11.573 37.2996C11.1959 37.2996 11.0009 37.0609 11.0009 36.6959C11.0009 36.3421 11.183 36.095 11.573 36.095C11.9566 36.095 12.1468 36.3309 12.1468 36.6959C12.1468 37.0539 11.9599 37.2996 11.573 37.2996Z" fill="#2C2C2C"/>
<path d="M12.6249 37.7924H12.8521V37.4554H14.1318V37.7924H14.3607V37.2785H14.1931V35.9392H13.0423C13.0181 36.4179 12.9972 36.6889 12.9424 36.9276C12.8892 37.1732 12.8215 37.2785 12.6249 37.2785V37.7924ZM13.0262 37.2785C13.1003 37.2168 13.1309 37.1227 13.1632 36.9879C13.2196 36.7801 13.2454 36.4011 13.2615 36.1161H13.9578V37.2785H13.0262Z" fill="#2C2C2C"/>
<path d="M15.3426 37.4976C15.6875 37.4976 15.9421 37.353 16.0727 37.0834L15.8341 37.0216C15.7471 37.2041 15.5779 37.2996 15.3426 37.2996C14.9686 37.2996 14.7801 37.0609 14.7752 36.6973C14.7801 36.3435 14.9574 36.095 15.3426 36.095C15.5698 36.095 15.7584 36.2003 15.8406 36.3814L16.0727 36.3168C15.976 36.0571 15.6955 35.897 15.3442 35.897C14.8236 35.897 14.5302 36.2199 14.5238 36.6973C14.5302 37.1648 14.8155 37.4976 15.3426 37.4976Z" fill="#2C2C2C"/>
<path d="M16.8335 37.4554H17.0705V36.1301H17.6877V35.9392H16.2162V36.1301H16.8335V37.4554Z" fill="#2C2C2C"/>
<path d="M17.9934 37.4554H18.8041C18.8912 37.4554 18.9992 37.4526 19.0846 37.4316C19.2764 37.3838 19.3989 37.2505 19.3989 37.0427C19.3989 36.8896 19.3312 36.7829 19.2087 36.7184C19.1716 36.6987 19.1313 36.6847 19.0975 36.679C19.1346 36.665 19.1748 36.6397 19.2071 36.6089C19.2748 36.5471 19.3151 36.4628 19.3151 36.3533C19.3151 36.1582 19.1845 36.0122 18.9895 35.9658C18.8992 35.9462 18.7832 35.9392 18.7107 35.9392H17.9934V37.4554ZM18.232 36.6089V36.1161H18.6865C18.7107 36.1161 18.8187 36.1161 18.896 36.1399C19.0088 36.1722 19.0669 36.2593 19.0669 36.3646C19.0669 36.4628 19.0153 36.5527 18.9041 36.5864C18.8509 36.6032 18.7735 36.6089 18.7187 36.6089H18.232ZM18.232 37.28V36.7858H18.759C18.8009 36.7858 18.8606 36.7858 18.9089 36.7956C19.0556 36.8152 19.1539 36.9037 19.1539 37.0371C19.1539 37.1382 19.0975 37.2336 18.9702 37.2617C18.9154 37.2743 18.838 37.28 18.7929 37.28H18.232Z" fill="#2C2C2C"/>
<path d="M20.447 37.4976C20.9628 37.4976 21.2722 37.1732 21.2722 36.6959C21.2722 36.227 20.9692 35.897 20.447 35.897C19.9377 35.897 19.6234 36.2185 19.6234 36.6959C19.6234 37.1662 19.928 37.4976 20.447 37.4976ZM20.447 37.2996C20.0699 37.2996 19.8748 37.0609 19.8748 36.6959C19.8748 36.3421 20.057 36.095 20.447 36.095C20.8306 36.095 21.0208 36.3309 21.0208 36.6959C21.0208 37.0539 20.8338 37.2996 20.447 37.2996Z" fill="#2C2C2C"/>
<path d="M22.2715 37.4554H22.5084V36.7956H23.4899V37.4554H23.7268V35.9392H23.4899V36.5976H22.5084V35.9392H22.2715V37.4554Z" fill="#2C2C2C"/>
<path d="M25.4976 36.2003C25.4057 36.0037 25.1736 35.897 24.8561 35.897C24.4725 35.897 24.2275 36.0543 24.1469 36.3252L24.3774 36.3842C24.4435 36.182 24.6143 36.0922 24.8529 36.0922C25.1833 36.0922 25.3138 36.2242 25.317 36.4979C25.085 36.526 24.7594 36.5583 24.5241 36.6074C24.2646 36.6678 24.0808 36.7998 24.0808 37.0483C24.0808 37.2898 24.2807 37.4976 24.6756 37.4976C24.9721 37.4976 25.2026 37.3965 25.338 37.2041V37.4554H25.5491V36.5134C25.5491 36.4011 25.5395 36.2887 25.4976 36.2003ZM24.703 37.3193C24.4225 37.3193 24.3178 37.1803 24.3178 37.0483C24.3178 36.884 24.4709 36.811 24.6192 36.7731C24.811 36.7268 25.085 36.7029 25.3138 36.679C25.3138 36.7478 25.3106 36.8461 25.2913 36.9205C25.2461 37.1494 25.035 37.3193 24.703 37.3193Z" fill="#2C2C2C"/>
<path d="M26.7601 35.897C26.5022 35.897 26.3072 35.9911 26.1798 36.1483V35.9392H25.9671V38.1294H26.2056V37.2743C26.3314 37.4133 26.5151 37.4976 26.7504 37.4976C27.2388 37.4976 27.5224 37.1508 27.5224 36.6959C27.5224 36.2438 27.2371 35.897 26.7601 35.897ZM26.7262 37.3052C26.3555 37.3052 26.1798 37.0469 26.1798 36.6959C26.1798 36.3393 26.3587 36.0894 26.7214 36.0894C27.0953 36.0894 27.271 36.3533 27.271 36.6959C27.271 37.0413 27.0889 37.3052 26.7262 37.3052Z" fill="#2C2C2C"/>
<path d="M28.9916 35.9392L28.4629 37.1859L27.8924 35.9392H27.6409L28.3485 37.4526L28.0616 38.1294H28.2985L29.2333 35.9392H28.9916Z" fill="#2C2C2C"/>
<path d="M29.3198 37.4554H29.5955L30.3046 36.7071V37.4554H30.5238V36.7071L31.2314 37.4554H31.507L30.772 36.6973L31.4763 35.9392H31.2104L30.5238 36.6875V35.9392H30.3046V36.6875L29.618 35.9392H29.3505L30.0548 36.6973L29.3198 37.4554Z" fill="#2C2C2C"/>
<path d="M31.7624 37.4554H31.9993V36.7956H32.9809V37.4554H33.2178V35.9392H32.9809V36.5976H31.9993V35.9392H31.7624V37.4554Z" fill="#2C2C2C"/>
<path d="M34.3954 37.4976C34.9111 37.4976 35.2206 37.1732 35.2206 36.6959C35.2206 36.227 34.9176 35.897 34.3954 35.897C33.8861 35.897 33.5718 36.2185 33.5718 36.6959C33.5718 37.1662 33.8764 37.4976 34.3954 37.4976ZM34.3954 37.2996C34.0182 37.2996 33.8232 37.0609 33.8232 36.6959C33.8232 36.3421 34.0053 36.095 34.3954 36.095C34.779 36.095 34.9692 36.3309 34.9692 36.6959C34.9692 37.0539 34.7822 37.2996 34.3954 37.2996Z" fill="#2C2C2C"/>
<path d="M36.2982 35.7594C36.5287 35.7594 36.714 35.598 36.714 35.3972H36.5174C36.5174 35.5025 36.4207 35.5882 36.2982 35.5882C36.1773 35.5882 36.079 35.5025 36.079 35.3972H35.8824C35.8824 35.598 36.0677 35.7594 36.2982 35.7594ZM36.959 35.9392H36.7607L35.805 37.1101V35.9392H35.5745V37.4554H35.7744L36.7285 36.2747V37.4554H36.959V35.9392Z" fill="#2C2C2C"/>
<path d="M38.848 35.897C38.5902 35.897 38.3951 35.9911 38.2678 36.1483V35.9392H38.0551V38.1294H38.2936V37.2743C38.4193 37.4133 38.6031 37.4976 38.8384 37.4976C39.3267 37.4976 39.6104 37.1508 39.6104 36.6959C39.6104 36.2438 39.3251 35.897 38.848 35.897ZM38.8142 37.3052C38.4435 37.3052 38.2678 37.0469 38.2678 36.6959C38.2678 36.3393 38.4467 36.0894 38.8094 36.0894C39.1833 36.0894 39.359 36.3533 39.359 36.6959C39.359 37.0413 39.1768 37.3052 38.8142 37.3052Z" fill="#2C2C2C"/>
<path d="M40.1207 36.7549H41.4922C41.51 36.2199 41.207 35.897 40.6912 35.897C40.1883 35.897 39.8676 36.2073 39.8676 36.7043C39.8676 37.1845 40.1932 37.4976 40.7009 37.4976C41.0377 37.4976 41.3198 37.3473 41.4584 37.082L41.2376 37.0076C41.1296 37.1971 40.9394 37.2996 40.6912 37.2996C40.3447 37.2996 40.14 37.1016 40.1207 36.7549ZM40.6976 36.0866C41.0216 36.0866 41.207 36.255 41.244 36.5822H40.1255C40.1626 36.2635 40.3624 36.0866 40.6976 36.0866Z" fill="#2C2C2C"/>
<path d="M41.8483 37.4554H42.0884V36.7254L42.9427 37.4554H43.2876L42.3657 36.6973L43.1812 35.9392H42.8653L42.0884 36.6692V35.9392H41.8499L41.8483 37.4554Z" fill="#2C2C2C"/>
<path d="M43.2564 37.4554C43.5852 37.5116 43.6754 37.4119 43.7319 37.162C43.7818 36.9416 43.8253 36.533 43.8576 36.1371H44.5861V37.4554H44.8214V35.9392H43.6384C43.6045 36.4207 43.5723 36.7759 43.5191 37.0497C43.4869 37.2154 43.4514 37.3052 43.2564 37.2743V37.4554Z" fill="#2C2C2C"/>
<path d="M46.5917 36.2003C46.4998 36.0037 46.2677 35.897 45.9502 35.897C45.5666 35.897 45.3217 36.0543 45.2411 36.3252L45.4715 36.3842C45.5376 36.182 45.7085 36.0922 45.947 36.0922C46.2774 36.0922 46.408 36.2242 46.4112 36.4979C46.1791 36.526 45.8535 36.5583 45.6182 36.6074C45.3587 36.6678 45.175 36.7998 45.175 37.0483C45.175 37.2898 45.3748 37.4976 45.7697 37.4976C46.0663 37.4976 46.2967 37.3965 46.4321 37.2041V37.4554H46.6433V36.5134C46.6433 36.4011 46.6336 36.2887 46.5917 36.2003ZM45.7971 37.3193C45.5167 37.3193 45.4119 37.1803 45.4119 37.0483C45.4119 36.884 45.565 36.811 45.7133 36.7731C45.9051 36.7268 46.1791 36.7029 46.408 36.679C46.408 36.7478 46.4047 36.8461 46.3854 36.9205C46.3403 37.1494 46.1291 37.3193 45.7971 37.3193Z" fill="#2C2C2C"/>
<path d="M47.0612 37.4554H47.2917V36.38L47.8768 37.4554H48.0267L48.6117 36.38V37.4554H48.8406V35.9392H48.6311L47.9509 37.1803L47.2724 35.9392H47.0612V37.4554Z" fill="#2C2C2C"/>
<path d="M49.2932 37.4554H49.8525C49.9508 37.4554 50.0604 37.4526 50.1474 37.4358C50.3827 37.3909 50.5552 37.2434 50.5552 36.9823C50.5552 36.6987 50.3666 36.5695 50.1103 36.5246C50.033 36.5134 49.9314 36.5106 49.8315 36.5106H49.5285V35.9392H49.29L49.2932 37.4554ZM50.7631 37.4554H51V35.9392H50.7631V37.4554ZM49.5285 37.2785V36.6875H49.8428C49.9121 36.6875 49.9927 36.6903 50.062 36.7029C50.2119 36.731 50.3102 36.8124 50.3102 36.9823C50.3102 37.1564 50.1974 37.2322 50.0829 37.2603C50.0136 37.2771 49.9137 37.2785 49.8428 37.2785H49.5285Z" fill="#2C2C2C"/>
<rect y="32.2095" width="51" height="1.36607" fill="#2586EE"/>
<path d="M0 30.7609V24.9655H3.08117C3.81356 24.9655 4.35999 25.1393 4.72046 25.4871C4.97794 25.7354 5.10668 26.0528 5.10668 26.4392C5.10668 27.0408 4.7977 27.4713 4.17975 27.7307C4.56883 27.8522 4.8635 28.026 5.06377 28.2523C5.26975 28.4786 5.37274 28.7822 5.37274 29.163C5.37274 29.6598 5.17248 30.0517 4.77196 30.3387C4.37143 30.6202 3.81356 30.7609 3.09834 30.7609H0ZM1.62212 29.4694H2.90952C3.44164 29.4694 3.70771 29.2872 3.70771 28.9229C3.70771 28.5752 3.43592 28.4013 2.89235 28.4013H1.62212V29.4694ZM1.62212 27.2754H2.66921C3.19561 27.2754 3.45881 27.1015 3.45881 26.7538C3.45881 26.4226 3.20705 26.257 2.70354 26.257H1.62212V27.2754Z" fill="#2586EE"/>
<path d="M6.34982 30.7609V24.9655H8.92462C9.69133 24.9655 10.2978 25.1476 10.7441 25.5119C11.1962 25.8707 11.4222 26.3729 11.4222 27.0187C11.4222 27.6811 11.1847 28.1944 10.7098 28.5587C10.2349 28.9229 9.61123 29.1051 8.83879 29.1051H8.01486V30.7609H6.34982ZM8.01486 27.8466H8.80446C9.10199 27.8466 9.33372 27.7776 9.49965 27.6397C9.67131 27.5017 9.75714 27.314 9.75714 27.0767C9.75714 26.8283 9.67131 26.6406 9.49965 26.5137C9.33372 26.3812 9.09913 26.315 8.79588 26.315H8.01486V27.8466Z" fill="#2586EE"/>
<path d="M12.3392 30.7609V24.9655H17.1713V26.3315H13.9871V27.2091H16.8709V28.4759H13.9871V29.3949H17.2142V30.7609H12.3392Z" fill="#2586EE"/>
<path d="M18.2784 30.7609V24.9655H19.9434V27.3168L22.0118 24.9655H23.9858L21.7114 27.4575L24.0631 30.7609H22.0633L20.5528 28.6083L19.9434 29.2624V30.7609H18.2784Z" fill="#2586EE"/>
<path d="M30.9416 30.7609L33.4992 24.9241H35.1042L37.6618 30.7609H35.8766L35.4389 29.726H33.1216L32.6925 30.7609H30.9416ZM33.6108 28.4759H34.9583L34.2888 26.8283L33.6108 28.4759Z" fill="#2586EE"/>
<path d="M38.4593 30.7609V24.9655H40.2188L41.6521 27.2091L43.0854 24.9655H44.8448V30.7609H43.1884V27.4327L41.6521 29.7012H41.6177L40.09 27.4492V30.7609H38.4593Z" fill="#2586EE"/>
<path d="M46.1251 30.7609V24.9655H50.9571V26.3315H47.7729V27.2091H50.6567V28.4759H47.7729V29.3949H51V30.7609H46.1251Z" fill="#2586EE"/>
<path d="M30.0536 30.8437V24.9241H26.1831L26.4108 26.2901H27.0938H28.4599V30.8437H30.0536Z" fill="#2586EE"/>
<rect y="22.1917" width="51" height="1.36607" fill="#2586EE"/>
<path d="M12.7502 8.30347H10.4734L17.3037 20.3704H17.5314H19.5805L12.7502 8.30347Z" fill="#2586EE"/>
<path d="M15.9377 8.30347H13.6609L20.4912 20.3704H20.7189H22.768L15.9377 8.30347Z" fill="#2586EE"/>
<path d="M19.1249 8.30347H16.8481L23.6785 20.3704H23.9062H25.9553L19.1249 8.30347Z" fill="#2586EE"/>
<path d="M22.3124 8.30347H20.0356L26.866 20.3704H27.0937H29.1428L22.3124 8.30347Z" fill="#2586EE"/>
<path d="M28.6876 0.334717H30.9644L24.8678 11.2238L23.6034 9.32714L28.6876 0.334717Z" fill="#2586EE"/>
<path d="M32.0211 0.334717H34.2979L26.1831 13.7678L25.1263 11.9463L32.0211 0.334717Z" fill="#2586EE"/>
<path d="M35.127 0.334717H37.4038L27.7769 16.4999L26.7201 14.6785L35.127 0.334717Z" fill="#2586EE"/>
<path d="M38.4605 0.334717H40.7373L29.5166 19.4597L28.4599 17.6383L38.4605 0.334717Z" fill="#2586EE"/>
<path d="M24.3616 29.933L23.4509 28.5669L26.1831 24.9241L27.0938 26.2901L24.3616 29.933Z" fill="#2586EE"/>
</svg>
