<svg width="12" height="18" viewBox="0 0 12 18" fill="none" xmlns="http://www.w3.org/2000/svg">
<path d="M6.00002 16.344C6.33806 16.344 6.6121 16.07 6.6121 15.732C6.6121 15.3939 6.33806 15.1199 6.00002 15.1199C5.66198 15.1199 5.38794 15.3939 5.38794 15.732C5.38794 16.07 5.66198 16.344 6.00002 16.344Z" fill="#2586EE"/>
<path d="M9.53081 0H2.46921C1.44337 0 0.608887 0.83456 0.608887 1.86032V16.1397C0.608887 17.1654 1.44345 18 2.46921 18H9.53089C10.5566 18 11.3912 17.1654 11.3912 16.1397V1.86032C11.3911 0.83456 10.5566 0 9.53081 0ZM1.80889 3.64024H10.1911V13.6319H1.80889V3.64024ZM2.46921 1.2H9.53089C9.89497 1.2 10.1912 1.49624 10.1912 1.86032V2.44024H1.80889V1.86032C1.80889 1.49624 2.10505 1.2 2.46921 1.2ZM9.53081 16.8H2.46921C2.10513 16.8 1.80889 16.5038 1.80889 16.1397V14.8318H10.1911V16.1397C10.1911 16.5038 9.89497 16.8 9.53081 16.8Z" fill="#2586EE"/>
</svg>
