<svg width="19" height="12" viewBox="0 0 19 12" fill="none" xmlns="http://www.w3.org/2000/svg">
<path d="M5.4298 12H0.749257C0.111001 12 -0.11948 11.728 0.057813 11.184L3.99373 0.624001C4.1001 0.208 4.4015 0 4.89792 0H8.62108C9.25934 0 9.48982 0.272 9.31253 0.816001L6.28081 11.376C6.17443 11.792 5.89077 12 5.4298 12ZM15.11 12H10.4295C9.79122 12 9.56074 11.728 9.73803 11.184L13.6739 0.624001C13.7803 0.208 14.0817 0 14.5781 0H18.3013C18.9041 0 19.1169 0.272 18.9396 0.816001L15.961 11.376C15.8547 11.792 15.571 12 15.11 12Z" fill="#FFA748"/>
</svg>
