<svg width="10" height="10" viewBox="0 0 10 10" fill="none" xmlns="http://www.w3.org/2000/svg">
<path d="M4.14286 0C6.43089 0 8.28572 1.85482 8.28572 4.14286C8.28572 5.0807 7.97409 5.94575 7.44874 6.64012L9.83263 9.02451C10.0558 9.24767 10.0558 9.60948 9.83263 9.83263C9.60948 10.0558 9.24767 10.0558 9.02451 9.83263L6.64012 7.44874C5.94575 7.97409 5.0807 8.28572 4.14286 8.28572C1.85482 8.28572 0 6.43089 0 4.14286C0 1.85482 1.85482 0 4.14286 0ZM4.14286 1.14286C2.486 1.14286 1.14286 2.486 1.14286 4.14286C1.14286 5.79971 2.486 7.14286 4.14286 7.14286C5.79971 7.14286 7.14286 5.79971 7.14286 4.14286C7.14286 2.486 5.79971 1.14286 4.14286 1.14286Z" fill="#2586EE"/>
</svg>
